<svg width="18" height="20" viewBox="0 0 18 20" fill="none" xmlns="http://www.w3.org/2000/svg">
<path d="M2.56991 17.1011L1.32705 17.5512L1.23318 16.2335C1.08601 14.1675 1.65672 12.5702 2.67954 11.3081C3.67187 10.0836 5.04322 9.23334 6.39263 8.53888C7.00269 8.22492 7.63185 7.93147 8.23566 7.64985C8.30383 7.61806 8.37167 7.58641 8.43913 7.55491C9.11274 7.2403 9.75085 6.9381 10.3421 6.61713C11.5408 5.96648 12.4198 5.30323 12.9169 4.48483L14.1103 2.51988L14.7338 4.73021L13.7714 5.00303C14.7338 4.73021 14.7339 4.73054 14.734 4.73089L14.7342 4.73169L14.7348 4.73363L14.7363 4.73894L14.7407 4.75513C14.7443 4.76837 14.7491 4.7865 14.755 4.8093C14.7668 4.85488 14.7829 4.91919 14.8019 5.00054C14.8399 5.16314 14.8897 5.39449 14.9399 5.68097C15.0402 6.25232 15.144 7.05166 15.1581 7.9678C15.186 9.7759 14.8656 12.1741 13.3234 14.1308C11.9051 15.9302 10.4984 17.0353 8.77763 17.5992C7.09692 18.15 5.2242 18.1457 2.97378 17.9602L2.88397 16.9864C2.78092 17.0244 2.67626 17.0626 2.56991 17.1011ZM12.8085 5.2743L12.8085 5.27457L12.8085 5.2743Z" stroke="#494949" stroke-width="2" stroke-linecap="round"/>
</svg>
